<svg width="20" height="20" viewBox="0 0 20 20" fill="none" xmlns="http://www.w3.org/2000/svg">
<g clip-path="url(#clip0_2166_159)">
<path d="M10 1.1228C10.3131 1.1228 10.621 1.20512 10.8926 1.36108C11.1642 1.51717 11.3911 1.74178 11.5488 2.01245L13.7109 5.72437L17.9121 6.6355L18.0254 6.66382C18.2878 6.73905 18.5301 6.87356 18.7334 7.05737C18.9656 7.26743 19.1386 7.53499 19.2354 7.83276C19.3321 8.13062 19.3497 8.44914 19.2852 8.75562C19.2206 9.06196 19.0767 9.34631 18.8682 9.57983L16.0049 12.783L16.4385 17.0593L16.4463 17.1765C16.456 17.4494 16.4029 17.7213 16.291 17.9714C16.163 18.2575 15.9626 18.506 15.709 18.6902C15.4554 18.8744 15.1573 18.9889 14.8457 19.0222C14.5342 19.0554 14.2193 19.0061 13.9326 18.8796L10 17.1462L6.06738 18.8787L6.06836 18.8796C5.78158 19.0061 5.46595 19.0555 5.1543 19.0222C4.84285 18.9889 4.54544 18.8743 4.29199 18.6902C4.03842 18.506 3.83795 18.2575 3.70996 17.9714C3.58205 17.6854 3.53086 17.3711 3.5625 17.0593L3.99512 12.7839L1.13281 9.58081C0.924019 9.34734 0.780554 9.06304 0.71582 8.75659C0.651141 8.45005 0.667988 8.13174 0.764648 7.83374C0.861398 7.53566 1.03416 7.26757 1.2666 7.05737C1.49901 6.84722 1.78264 6.70188 2.08887 6.6355L6.28906 5.72437L8.45215 2.01245L8.51465 1.91284C8.66722 1.68653 8.86989 1.49762 9.10742 1.36108C9.37894 1.20505 9.68684 1.12286 10 1.1228Z" fill="#FFD332" stroke="black" stroke-width="1.5" stroke-linejoin="round"/>
</g>
<defs>
<clipPath id="clip0_2166_159">
<rect width="20" height="20" fill="white"/>
</clipPath>
</defs>
</svg>
