<svg width="386" height="140" viewBox="0 0 386 140" fill="none" xmlns="http://www.w3.org/2000/svg">
<path d="M119.877 74.4031C119.877 101.327 143.399 120.392 167.35 127.95C191.03 135.422 214.925 135.645 237.12 123.314C253.03 114.475 267.695 98.3797 272.924 80.7168C278.408 62.1935 273.561 41.9861 261.176 27.4102C246.018 9.57162 224.914 3.22918 201.875 4.07355C159.964 5.60955 120.479 33.7931 117 77.2803" stroke="black" stroke-width="7" stroke-linecap="round"/>
<path d="M368.25 64.8853C371.004 66.6363 373.695 69.2187 373.198 72.7636C372.965 74.4198 372.071 75.6809 371.184 76.5612C370.295 77.4428 369.22 78.1395 368.185 78.6931C367.039 79.3057 365.732 79.8464 364.405 80.3182C365.312 81.1474 366.165 82.0524 366.931 83.0136C369.338 86.0336 371.279 90.1419 370.525 94.5994C370.093 97.1521 368.728 99.2477 366.353 100.213C364.296 101.049 362.126 100.753 360.532 100.329C360.101 100.215 359.671 100.077 359.244 99.9257C359.404 101.267 359.367 102.729 358.916 104.135C358.231 106.273 356.651 108.044 354.169 108.83C351.08 109.809 347.921 109.052 345.481 107.876C343.009 106.684 340.755 104.821 339.296 102.767C338.177 101.192 338.547 99.0065 340.122 97.887C341.698 96.7675 343.883 97.1375 345.003 98.7132C345.719 99.7217 347.019 100.847 348.521 101.571C350.054 102.31 351.289 102.4 352.057 102.157C352.223 102.104 352.224 102.098 352.239 102.041C352.241 102.029 352.245 102.016 352.25 102C352.344 101.707 352.4 101.05 352.163 100.015C351.937 99.0288 351.508 97.9806 350.994 97.0899C350.442 96.133 349.976 95.6731 349.847 95.581C348.272 94.4604 347.904 92.2754 349.024 90.7004C350.145 89.1257 352.329 88.757 353.904 89.8772C353.985 89.9346 354.065 89.9939 354.144 90.0551C355.017 89.9304 355.938 90.1325 356.705 90.6939C357.886 91.5568 360.304 93.0251 362.329 93.5628C362.968 93.7325 363.357 93.7523 363.555 93.7445C363.576 93.6717 363.6 93.5693 363.623 93.4303C363.913 91.7146 363.22 89.5881 361.457 87.3767C359.764 85.2522 357.449 83.5378 355.489 82.6706C353.897 82.6859 352.447 81.6078 352.057 79.994C351.603 78.1153 352.757 76.2248 354.636 75.7705C354.855 75.7176 355.092 75.6609 355.346 75.6006C357.934 74.9838 362.162 73.9761 364.885 72.5204C365.341 72.2763 365.684 72.0554 365.931 71.8682C365.665 71.6148 365.222 71.2555 364.495 70.7931C360.779 68.4308 355.074 67.3155 350.139 67.2883C350.149 67.2884 350.132 67.2892 350.09 67.2914C349.955 67.2985 349.559 67.3194 348.973 67.3704C348.406 67.4196 347.764 67.4887 347.164 67.5769C346.145 69.1599 344.046 69.6575 342.421 68.6817C342.102 68.4906 341.675 68.1955 341.285 67.7589C340.89 67.3175 340.382 66.5559 340.291 65.493C340.262 65.1645 340.275 64.8592 340.318 64.5766C340.276 64.0028 340.374 63.4108 340.633 62.8518C341.878 60.1645 341.963 56.3093 340.715 53.1047C339.503 49.9937 337.333 48.1005 334.393 47.9585C331.57 47.8221 329.357 49.679 328.372 52.888C327.357 56.1938 328.086 59.7188 330.123 61.6167C331.099 62.526 331.438 63.8626 331.122 65.0684C331.109 65.2413 331.082 65.4152 331.042 65.5892C330.882 66.2814 330.538 67.3071 329.649 68.1338C328.638 69.0736 327.474 69.2623 326.702 69.257C326.153 69.2531 325.577 69.1363 325.439 69.1083C325.427 69.1058 325.417 69.104 325.413 69.1031C325.374 69.096 325.344 69.0914 325.323 69.0879C323.588 69.162 321.876 69.2938 320.097 69.4309C319.524 69.4751 318.944 69.5192 318.355 69.5626C315.942 69.7404 313.42 69.8924 310.842 69.8519C307.41 69.7979 303.714 69.5944 300.08 69.3942C297.383 69.2456 294.72 69.0986 292.226 69.0164C286.089 68.8141 280.187 68.9454 274.576 70.0799C272.681 70.4629 270.834 69.2375 270.451 67.3429C270.068 65.4482 271.293 63.6012 273.188 63.2182C279.59 61.9239 286.125 61.8117 292.457 62.0204C295.365 62.1163 298.101 62.2699 300.777 62.4204C304.186 62.6121 307.5 62.7987 310.953 62.853C313.206 62.8884 315.472 62.7566 317.841 62.582C318.377 62.5425 318.923 62.5004 319.474 62.4579C320.369 62.3889 321.28 62.3178 322.2 62.2547C320.612 58.6024 320.591 54.3807 321.68 50.8334C323.29 45.5879 327.755 40.6303 334.731 40.9672C341.194 41.2794 345.333 45.6778 347.237 50.5641C348.423 53.6105 348.857 57.0827 348.47 60.3875C349.291 60.3182 349.94 60.2873 350.178 60.2886C355.791 60.3195 362.984 61.5385 368.25 64.8853Z" fill="black"/>
<path d="M17.155 69.8853C14.4004 71.6363 11.7101 74.2187 12.2072 77.7636C12.4395 79.4198 13.3336 80.6809 14.2207 81.5612C15.1093 82.4428 16.1844 83.1395 17.2199 83.6931C18.3658 84.3057 19.6723 84.8464 20.9996 85.3182C20.0928 86.1474 19.2399 87.0524 18.4738 88.0136C16.0666 91.0336 14.1253 95.1419 14.8799 99.5994C15.3121 102.152 16.6772 104.248 19.0519 105.213C21.1085 106.049 23.2789 105.753 24.8727 105.329C25.3039 105.215 25.7342 105.077 26.1609 104.926C26.0005 106.267 26.0376 107.729 26.4884 109.135C27.1733 111.273 28.7534 113.044 31.2353 113.83C34.3249 114.809 37.4842 114.052 39.9241 112.876C42.3958 111.684 44.6493 109.821 46.1084 107.767C47.2278 106.192 46.8579 104.006 45.2822 102.887C43.7065 101.767 41.5215 102.137 40.4019 103.713C39.6854 104.722 38.3855 105.847 36.8839 106.571C35.3504 107.31 34.1153 107.4 33.3482 107.157C33.1817 107.104 33.1802 107.098 33.166 107.041C33.1632 107.029 33.1594 107.016 33.1543 107C33.0605 106.707 33.0052 106.05 33.2419 105.015C33.4676 104.029 33.8969 102.981 34.4108 102.09C34.9628 101.133 35.4288 100.673 35.5582 100.581C37.133 99.4604 37.5011 97.2754 36.3806 95.7004C35.2601 94.1257 33.0754 93.757 31.5005 94.8772C31.4198 94.9346 31.3392 94.9939 31.2603 95.0551C30.3876 94.9304 29.4672 95.1325 28.6993 95.6939C27.5192 96.5568 25.1003 98.0251 23.0758 98.5628C22.4366 98.7325 22.0474 98.7523 21.8494 98.7445C21.8284 98.6717 21.805 98.5693 21.7815 98.4303C21.4912 96.7146 22.1849 94.5881 23.9475 92.3767C25.6409 90.2522 27.9553 88.5378 29.9156 87.6706C31.5077 87.6859 32.9579 86.6078 33.3481 84.994C33.802 83.1153 32.6473 81.2248 30.7687 80.7705C30.5499 80.7176 30.3123 80.6609 30.0592 80.6006C27.4707 79.9838 23.2429 78.9761 20.5199 77.5204C20.0635 77.2763 19.7208 77.0554 19.4738 76.8682C19.7393 76.6148 20.1823 76.2555 20.9097 75.7931C24.6261 73.4308 30.3309 72.3155 35.2662 72.2883C35.256 72.2884 35.2726 72.2892 35.3143 72.2914C35.4495 72.2985 35.8455 72.3194 36.4322 72.3704C36.9987 72.4196 37.6409 72.4887 38.2405 72.5769C39.2593 74.1599 41.3586 74.6575 42.984 73.6817C43.3023 73.4906 43.7296 73.1955 44.12 72.7589C44.5146 72.3175 45.0225 71.5559 45.114 70.493C45.1423 70.1645 45.1294 69.8592 45.087 69.5766C45.1292 69.0028 45.0309 68.4108 44.7719 67.8518C43.5266 65.1645 43.4416 61.3093 44.6899 58.1047C45.9018 54.9937 48.0722 53.1005 51.0114 52.9585C53.8349 52.8221 56.0477 54.679 57.0328 57.888C58.0475 61.1938 57.3186 64.7188 55.2818 66.6167C54.3059 67.526 53.9665 68.8626 54.2826 70.0684C54.296 70.2413 54.323 70.4152 54.3631 70.5892C54.5226 71.2814 54.8671 72.3071 55.7562 73.1338C56.7671 74.0736 57.9308 74.2623 58.7029 74.257C59.252 74.2531 59.8275 74.1363 59.9657 74.1083C59.9782 74.1058 59.9872 74.104 59.9922 74.1031C60.0308 74.096 60.0605 74.0914 60.082 74.0879C61.8171 74.162 63.529 74.2938 65.308 74.4309C65.8804 74.4751 66.4603 74.5192 67.0497 74.5626C69.4625 74.7404 71.9843 74.8924 74.5624 74.8519C77.9944 74.7979 81.6912 74.5944 85.3251 74.3942C88.0218 74.2456 90.6843 74.0986 93.1787 74.0164C99.3156 73.8141 105.217 73.9454 110.829 75.0799C112.724 75.4629 114.571 74.2375 114.954 72.3429C115.337 70.4482 114.112 68.6012 112.217 68.2182C105.815 66.9239 99.2793 66.8117 92.9475 67.0204C90.0394 67.1163 87.304 67.2699 84.6277 67.4204C81.2185 67.6121 77.9046 67.7987 74.4519 67.853C72.1988 67.8884 69.9323 67.7566 67.5635 67.582C67.0275 67.5425 66.482 67.5004 65.9303 67.4579C65.0362 67.3889 64.1244 67.3178 63.2044 67.2547C64.7927 63.6024 64.8139 59.3807 63.7249 55.8334C62.1146 50.5879 57.65 45.6303 50.6739 45.9672C44.2104 46.2794 40.0716 50.6778 38.1681 55.5641C36.9814 58.6105 36.5478 62.0827 36.9344 65.3875C36.114 65.3182 35.4647 65.2873 35.227 65.2886C29.6134 65.3195 22.4204 66.5385 17.155 69.8853Z" fill="black"/>
<path d="M201.581 76.5211C205.336 76.1039 210.072 75.6779 214.596 76.357C219.183 77.0456 223.921 78.9288 227.198 83.4186C229.053 85.9606 229.512 88.7871 228.381 91.44C227.39 93.7653 225.395 95.4129 223.602 96.5357C219.96 98.8168 215.203 100.127 212.811 100.511C212.572 100.55 212.33 100.589 212.086 100.629C206.651 101.507 200.133 102.559 193.884 101.337C193.556 101.272 193.168 101.203 192.738 101.127C191.156 100.845 188.995 100.461 187.063 99.8287C184.618 99.0283 181.497 97.529 179.937 94.3229C179.125 92.655 178.798 90.8819 179.128 89.1012C179.454 87.3476 180.355 85.9224 181.418 84.8092C183.444 82.6873 186.466 81.2732 189.233 80.276C192.101 79.2421 195.207 78.4831 197.792 77.9078C198.398 77.7731 198.96 77.6509 199.478 77.5396C200.022 76.9884 200.752 76.6133 201.581 76.5211ZM213.557 83.2799C211.146 82.9179 208.551 82.9491 205.957 83.1373C205.787 83.2214 205.607 83.2923 205.419 83.3492C204.508 83.6254 203.014 83.9442 201.401 84.2887C200.715 84.4351 200.007 84.5864 199.313 84.7408C196.799 85.3002 194.044 85.9824 191.607 86.8609C189.068 87.7761 187.338 88.7456 186.481 89.6432C186.102 90.0397 186.029 90.2837 186.011 90.3785C185.998 90.446 185.959 90.7004 186.232 91.2604C186.516 91.8442 187.317 92.5456 189.241 93.1754C190.657 93.6389 192.115 93.9 193.625 94.1705C194.153 94.265 194.688 94.3615 195.229 94.4674C200.227 95.4451 205.645 94.5734 211.461 93.6383L211.7 93.6002C213.49 93.3126 217.274 92.2389 219.886 90.6031C221.22 89.7675 221.781 89.0729 221.942 88.6949C221.943 88.6915 221.946 88.6874 221.949 88.6822C221.988 88.6097 222.129 88.3485 221.543 87.5455C219.741 85.0764 217.028 83.8009 213.557 83.2799ZM184.789 41.8551C186.722 41.8552 188.289 43.4223 188.289 45.3551C188.289 49.8646 187.132 53.752 184.608 56.8932C182.12 59.989 178.576 62.0186 174.422 63.3687C170.372 64.6851 165.664 65.5225 160.882 64.2643C158.187 63.5551 155.914 62.7407 154.086 61.0348C152.323 59.3892 151.31 57.2064 150.286 54.8326C149.521 53.0575 150.34 50.9981 152.116 50.233C153.891 49.4679 155.95 50.287 156.715 52.0621C157.789 54.5547 158.314 55.4045 158.863 55.9166C159.347 56.3683 160.161 56.8362 162.663 57.4947C165.595 58.2661 168.805 57.8341 172.259 56.7115C175.611 55.6221 177.792 54.2 179.152 52.5084C180.475 50.862 181.289 48.6256 181.289 45.3551C181.29 43.4222 182.856 41.8551 184.789 41.8551ZM229.335 40.0055C229.609 38.0919 231.382 36.7624 233.295 37.0357C235.209 37.3091 236.538 39.0821 236.265 40.9957C235.781 44.3826 234.597 48.1129 232.332 51.0846C229.983 54.1674 226.459 56.4078 221.741 56.4078C213.261 56.4078 208.244 49.7563 205.413 44.2613C204.528 42.5429 205.204 40.4317 206.922 39.5465C208.64 38.6614 210.751 39.3371 211.636 41.0553C214.248 46.1252 217.492 49.4078 221.741 49.4078C223.957 49.4078 225.534 48.4556 226.765 46.8404C228.08 45.1143 228.959 42.641 229.335 40.0055Z" fill="black"/>
</svg>
